<svg xmlns="http://www.w3.org/2000/svg" viewBox="0 0 64 64">
  <path d="M32 14c-3 0-5 2-7 4-2-2-4-4-7-4-2 0-3 1-3 3 0 3 3 5 6 7-4 2-9 7-9 16 0 11 9 18 20 18s20-7 20-18c0-9-5-14-9-16 3-2 6-4 6-7 0-2-1-3-3-3-3 0-5 2-7 4-2-2-4-4-7-4z" fill="#FF4D77"/>
  <path d="M22 18c2-2 4-4 7-4s5 2 7 4c-2 2-5 3-7 3s-5-1-7-3z" fill="#7BB661"/>
  <circle cx="24" cy="36" r="2" fill="#F3E9DC"/>
  <circle cx="32" cy="44" r="2" fill="#F3E9DC"/>
  <circle cx="40" cy="36" r="2" fill="#F3E9DC"/>
  <circle cx="28" cy="50" r="2" fill="#F3E9DC"/>
  <circle cx="36" cy="50" r="2" fill="#F3E9DC"/>
</svg>
